<svg xmlns="http://www.w3.org/2000/svg" viewBox="0 0 512 512" role="img" aria-label="Paw icon">
  <defs>
    <linearGradient id="shadow" x1="0%" y1="0%" x2="100%" y2="0%">
      <stop offset="0%" stop-color="#e5e7eb" stop-opacity="0.25"/>
      <stop offset="100%" stop-color="#9ca3af" stop-opacity="0.5"/>
    </linearGradient>
  </defs>
  <!-- Paw base -->
  <path d="M160 32h192c53 0 96 43 96 96v320c0 22-18 40-40 40H104c-22 0-40-18-40-40V128c0-53 43-96 96-96z" fill="#ffffff" stroke="#111827" stroke-width="16" stroke-linejoin="round"/>
  <path d="M320 32h32c53 0 96 43 96 96v320c0 22-18 40-40 40h-40V32z" fill="url(#shadow)" opacity="0.35"/>

  <!-- Pads -->
  <ellipse cx="256" cy="260" rx="100" ry="90" fill="#f472b6" stroke="#111827" stroke-width="12"/>
  <ellipse cx="170" cy="142" rx="45" ry="55" fill="#f472b6" stroke="#111827" stroke-width="10"/>
  <ellipse cx="235" cy="108" rx="45" ry="55" fill="#f472b6" stroke="#111827" stroke-width="10"/>
  <ellipse cx="277" cy="108" rx="45" ry="55" fill="#f472b6" stroke="#111827" stroke-width="10"/>
  <ellipse cx="342" cy="142" rx="45" ry="55" fill="#f472b6" stroke="#111827" stroke-width="10"/>
</svg>
